<?xml version="1.0" standalone="no"?>
<!DOCTYPE svg PUBLIC "-//W3C//DTD SVG 20010904//EN"
 "http://www.w3.org/TR/2001/REC-SVG-20010904/DTD/svg10.dtd">
<svg version="1.0" xmlns="http://www.w3.org/2000/svg"
 width="1102.000000pt" height="1102.000000pt" viewBox="0 0 1102.000000 1102.000000"
 preserveAspectRatio="xMidYMid meet">
<metadata>
Created by potrace 1.14, written by Peter Selinger 2001-2017
</metadata>
<g transform="translate(0.000000,1102.000000) scale(0.100000,-0.100000)"
fill="#000000" stroke="none">
<path d="M10623 10580 c-40 -21 -110 -89 -223 -220 -90 -104 -132 -151 -195
-219 -79 -85 -373 -379 -410 -410 -40 -32 -166 -141 -186 -161 -45 -43 -228
-184 -339 -261 -36 -25 -148 -106 -248 -179 -335 -241 -633 -418 -986 -585
-76 -36 -140 -65 -141 -65 -2 0 -72 -33 -156 -73 -266 -127 -748 -314 -1059
-411 -47 -15 -98 -31 -115 -36 -41 -13 -276 -81 -295 -85 -8 -2 -49 -13 -90
-24 -211 -58 -628 -159 -690 -167 -63 -8 -70 -10 -82 -22 -10 -10 -13 -122
-13 -462 0 -443 0 -450 20 -450 11 0 36 4 55 9 19 5 118 28 220 51 185 42 569
138 580 145 4 2 20 6 36 9 44 8 428 120 587 172 205 66 528 183 632 229 17 7
98 41 180 75 316 130 784 359 957 467 21 13 40 23 43 23 3 0 31 16 61 35 30
19 56 35 58 35 8 0 223 134 346 215 139 92 356 249 470 339 404 322 957 872
1238 1233 37 48 88 152 98 203 3 19 8 80 10 135 6 200 -52 350 -170 440 -50
38 -135 44 -193 15z"/>
<path d="M10317 8048 c-41 -11 -75 -40 -278 -239 -343 -338 -684 -590 -1209
-897 -141 -82 -539 -289 -630 -327 -74 -31 -133 -56 -165 -70 -89 -40 -457
-184 -680 -266 -160 -58 -653 -224 -699 -234 -12 -2 -68 -19 -126 -36 -115
-34 -498 -136 -542 -144 -16 -3 -58 -12 -95 -21 -38 -9 -78 -18 -90 -20 -12
-2 -99 -20 -195 -39 -95 -19 -182 -35 -193 -35 -20 0 -20 -6 -20 -391 l0 -390
30 5 c17 4 41 8 55 11 14 3 41 8 60 11 19 3 38 8 41 9 3 2 25 7 50 10 24 3
112 22 194 41 83 19 161 37 175 40 65 14 481 119 615 155 494 133 780 231
1280 439 716 298 1166 541 1710 923 86 61 330 249 345 266 3 3 23 21 45 40
187 159 475 439 519 504 46 71 66 144 71 262 5 110 -9 184 -50 264 -55 109
-129 152 -218 129z"/>
<path d="M2299 7756 c-2 -2 -31 -7 -64 -10 -33 -4 -71 -9 -85 -11 -14 -3 -34
-7 -45 -9 -148 -28 -387 -124 -547 -219 -201 -119 -494 -385 -661 -600 -152
-195 -370 -576 -486 -848 -68 -163 -194 -553 -225 -699 -3 -14 -12 -54 -21
-89 -23 -95 -64 -321 -81 -446 -3 -27 -8 -58 -9 -67 -2 -9 -7 -48 -10 -85 -4
-37 -8 -78 -10 -91 -27 -169 -27 -849 0 -1082 2 -19 6 -64 10 -100 3 -36 7
-76 9 -90 2 -14 6 -50 10 -80 13 -105 45 -286 72 -410 16 -74 21 -94 64 -255
58 -220 183 -554 289 -778 216 -451 551 -878 888 -1129 155 -115 259 -175 418
-238 11 -4 32 -12 46 -18 26 -10 161 -49 202 -58 204 -45 477 -53 637 -19 14
3 41 8 60 11 102 17 322 103 455 177 154 87 326 219 479 369 49 49 91 88 92
88 2 0 3 -145 3 -322 0 -178 0 -329 1 -335 0 -10 112 -13 524 -13 l524 0 0
3730 0 3730 -524 0 -524 0 0 -107 c-1 -60 -1 -210 -1 -335 1 -126 -1 -228 -3
-228 -2 0 -39 35 -82 78 -106 104 -166 156 -255 224 -211 160 -479 287 -699
332 -41 8 -88 18 -105 21 -33 7 -340 16 -346 11z m329 -1611 c375 -88 702
-417 930 -935 92 -211 159 -464 207 -780 20 -134 27 -530 12 -686 -42 -440
-173 -856 -382 -1211 -198 -335 -525 -582 -840 -632 -60 -10 -224 -7 -280 4
-68 13 -173 45 -220 66 -27 12 -53 23 -56 23 -4 1 -50 28 -104 61 -114 71
-258 203 -341 312 -32 43 -62 80 -65 83 -12 10 -98 159 -137 236 -104 205
-214 537 -247 744 -3 19 -7 46 -10 60 -2 14 -7 43 -10 65 -3 22 -7 51 -10 65
-4 27 -15 133 -21 220 -9 129 -3 451 10 557 10 79 18 137 22 158 2 11 7 39 10
62 3 23 16 86 30 140 13 54 27 107 29 117 13 56 85 255 120 331 7 17 25 57 39
89 15 33 50 100 78 150 230 404 534 650 877 710 98 17 266 13 359 -9z"/>
<path d="M9930 5639 c-25 -18 -79 -62 -120 -99 -181 -160 -330 -265 -645 -452
-583 -346 -1518 -708 -2355 -912 -530 -129 -738 -174 -1055 -231 -44 -8 -91
-17 -105 -20 -14 -3 -50 -9 -80 -15 -30 -6 -64 -12 -75 -14 -11 -2 -38 -7 -60
-10 l-40 -7 0 -297 c0 -163 4 -302 7 -308 4 -6 20 -9 35 -7 73 12 307 57 478
93 105 22 200 42 213 45 13 2 31 6 40 9 9 3 28 7 42 10 61 10 505 113 660 152
74 19 144 37 154 39 105 25 622 188 950 301 826 285 1617 716 2070 1128 98 89
129 141 144 239 32 205 -42 361 -180 383 -26 5 -42 -1 -78 -27z"/>
<path d="M9588 3406 c-25 -12 -70 -41 -100 -63 -51 -38 -120 -85 -163 -109
-11 -6 -49 -28 -84 -48 -64 -37 -305 -156 -315 -156 -2 0 -33 -13 -68 -29
-130 -59 -432 -168 -718 -259 -184 -59 -881 -245 -1034 -277 -14 -3 -38 -7
-53 -10 -16 -3 -36 -8 -45 -11 -9 -3 -27 -7 -40 -9 -13 -3 -45 -9 -73 -15 -27
-5 -61 -12 -75 -14 -14 -2 -59 -11 -100 -20 -41 -9 -93 -18 -115 -21 -22 -4
-47 -8 -56 -11 -9 -2 -52 -11 -95 -19 -43 -8 -92 -17 -109 -20 -28 -5 -90 -16
-174 -30 -19 -3 -37 -7 -40 -9 -3 -2 -28 -7 -56 -10 -27 -4 -99 -16 -160 -26
-60 -11 -128 -22 -150 -25 -22 -3 -49 -7 -60 -9 -11 -2 -45 -7 -75 -11 -30 -4
-62 -9 -70 -10 -8 -1 -46 -6 -85 -10 -38 -4 -72 -8 -75 -10 -8 -5 -5 -443 3
-451 3 -4 41 -1 84 5 98 16 118 18 173 26 25 3 70 10 100 15 69 11 112 17 175
25 28 3 61 8 75 11 14 3 36 8 50 10 14 3 48 9 75 14 52 10 62 12 180 30 39 6
84 13 100 16 41 7 79 13 118 19 17 3 113 24 212 45 99 22 190 42 203 45 12 3
30 7 40 9 30 7 296 67 321 72 47 9 507 123 586 144 44 12 85 23 90 24 172 40
644 200 875 298 285 120 682 338 823 452 91 73 123 199 86 340 -27 102 -93
135 -181 92z"/>
<path d="M9290 1403 c-8 -3 -55 -25 -103 -50 -200 -100 -493 -205 -822 -293
-104 -28 -199 -52 -210 -54 -11 -3 -100 -20 -197 -40 -97 -19 -187 -37 -200
-40 -51 -9 -245 -46 -268 -51 -56 -11 -389 -64 -440 -70 -30 -3 -71 -8 -90
-10 -19 -2 -62 -7 -95 -10 -33 -3 -116 -15 -185 -25 -69 -11 -177 -27 -240
-35 -63 -9 -127 -18 -142 -21 -15 -2 -71 -7 -125 -9 -111 -7 -139 -9 -203 -19
-76 -13 -92 -15 -175 -22 -44 -3 -88 -8 -98 -10 -10 -2 -62 -6 -115 -9 -125
-8 -163 -13 -176 -25 -8 -5 -11 -60 -11 -152 l0 -143 55 1 c55 1 213 12 260
18 14 2 54 7 90 11 36 4 72 9 81 10 36 7 162 19 309 30 149 11 196 16 280 30
92 16 138 22 215 30 82 9 124 14 240 30 104 14 124 18 185 30 14 2 39 7 55 10
17 3 41 7 55 10 57 11 77 14 120 20 25 3 56 7 69 10 14 2 60 9 103 15 133 18
432 80 703 145 61 15 121 29 135 31 14 3 34 8 45 11 11 4 25 8 30 9 80 16 296
80 460 136 197 66 303 113 442 194 71 41 98 143 64 235 -25 65 -57 88 -101 72z"/>
</g>
</svg>
